Coordinates
version=1
nRows=6
nColumns=36
inDegrees=yes

Units are S.I. units (second, meters, Newtons, ...)
If the header above contains a line with 'inDegrees', this indicates whether rotational values are in degrees (yes) or radians (no).

endheader
time	pelvis_tilt	pelvis_list	pelvis_rotation	pelvis_tx	pelvis_ty	pelvis_tz	hip_flexion_r	hip_adduction_r	hip_rotation_r	knee_angle_r	knee_angle_r_beta	ankle_angle_r	subtalar_angle_r	mtp_angle_r	hip_flexion_l	hip_adduction_l	hip_rotation_l	knee_angle_l	knee_angle_l_beta	ankle_angle_l	subtalar_angle_l	mtp_angle_l	lumbar_extension	lumbar_bending	lumbar_rotation	arm_flex_r	arm_add_r	arm_rot_r	elbow_flex_r	pro_sup_r	arm_flex_l	arm_add_l	arm_rot_l	elbow_flex_l	pro_sup_l
      0.00000000	      5.41733620	      1.06412200	      0.73594774	     -0.86324849	      1.29789093	     -0.09699028	    -12.04615520	     -1.47655294	     -1.14266983	      1.53221672	      0.02674223	      0.51172573	     -5.54065784	     -6.83924592	    -11.85129373	      0.64257436	      1.17862428	      2.08798868	      0.03644228	      3.40816788	     -0.31251960	     -6.83924592	    -14.95276329	     -0.00733751	     -1.68246709	     24.92387708	     -0.84475261	     21.05962869	     34.77012644	     79.16184073	     31.23347984	      0.70940011	     23.98861713	     24.94632288	     73.01170980
      0.00416670	      7.43953206	      1.76109875	      1.08116270	     -0.86665529	      1.29410744	     -0.09880502	    -14.52261558	     -1.85464979	     -0.56834485	      0.82711666	      0.01443591	      2.39838693	     -3.71773330	     -6.78925620	    -14.44653245	      1.19132219	      2.39838397	      1.38320116	      0.02414141	      1.83784601	     -1.58458715	     -6.78925620	    -18.19572996	      0.14292865	     -2.58300472	     27.09710010	     -0.18166204	     22.03880754	     35.06012270	     79.74829266	     34.22619157	      0.37583078	     23.05997773	     24.19170314	     73.39084581
      0.00833330	      7.08906157	      2.02728420	      0.93366382	     -0.86684226	      1.29457724	     -0.09690308	    -14.12945054	     -2.01087112	     -1.02677519	      0.80397024	      0.01403193	      2.48955391	     -4.09305522	     -7.29157588	    -13.92772732	      1.44610138	      2.25229221	      1.66772279	      0.02910725	      1.91210577	     -1.18651519	     -7.29157588	    -18.43122386	     -0.21120590	     -2.32486683	     27.45982378	     -0.71508927	     22.78003690	     36.47919161	     82.09073910	     35.16820494	      0.40545693	     22.65107539	     24.12716961	     73.82536996
      0.01250000	      7.28647032	      2.05665720	      1.15285460	     -0.86831031	      1.29541677	     -0.09640921	    -14.26584566	     -2.06643280	     -1.31893054	      0.84353701	      0.01472250	      2.66589640	     -4.11147088	     -7.36834189	    -14.21356586	      1.48931377	      2.63865111	      1.24671094	      0.02175921	      1.65690168	     -1.52627034	     -7.36834189	    -18.76507671	     -0.18236767	     -1.88569819	     28.00439390	     -1.23421094	     22.95465629	     37.83935708	     78.96562635	     36.07015935	      0.63852467	     22.89088766	     24.90817433	     71.82485974
      0.01666670	      6.54238796	      2.14001921	      1.29911721	     -0.87102355	      1.29422484	     -0.09475037	    -13.35657950	     -2.08179303	     -1.17441869	      0.88543065	      0.01545368	      2.59597708	     -4.50356684	     -7.46355397	    -13.30577634	      1.55438552	      2.65155678	      1.17038179	      0.02042702	      1.30391802	     -1.66177799	     -7.46355397	    -18.12653720	     -0.35375792	     -1.13677356	     27.99698162	     -1.12734430	     19.92109576	     38.95873142	     83.16821549	     37.18383236	      0.85142673	     24.97749923	     24.88757369	     73.65182561
      0.02083330	      6.30290728	      2.20156073	      1.31703241	     -0.87015257	      1.29279183	     -0.09546438	    -13.03610199	     -2.15820586	     -1.01506712	      0.99675680	      0.01739669	      2.52531745	     -4.93755085	     -7.48129783	    -12.88632980	      1.66782628	      2.92842271	      1.20791579	      0.02108211	      1.21901635	     -1.64209341	     -7.48129783	    -17.81509709	     -0.38086572	     -0.83258804	     28.32565972	     -1.07630602	     19.45573209	     39.77963093	     79.65295766	     37.84112601	      0.93447617	     26.01476695	     25.36247182	     72.23027894
